# xmcd CD database file
#
# Track frame offsets:
#	183
#	15533
#	34433
#	46795
#	60420
#	72258
#	91883
#	112958
#	126933
#	141033
#
# Disc length: 2026 seconds
#
# Revision: 1
# Processed by: cddbd v1.5.2PL0 Copyright (c) Steve Scherf et al.
# Submitted via: CDex 1.51
#
DISCID=8007e80a
DTITLE=Chris Barber - Chris Barber in Budapest
DYEAR=1962
DGENRE=Jazz
TTITLE0=Lord, Lord, Lord
TTITLE1=Chiquita
TTITLE2=Mountains of Mourne
TTITLE3=Trad Tavern
TTITLE4=Mama, he treats your daughter mean
TTITLE5=Ice cream
TTITLE6=Mood indigo
TTITLE7=Whistling Rufus
TTITLE8=Some of these days
TTITLE9=This little light of mine
EXTD=YEAR: 1962
EXTT0=
EXTT1=
EXTT2=
EXTT3=
EXTT4=
EXTT5=
EXTT6=
EXTT7=
EXTT8=
EXTT9=
PLAYORDER=
